HIERARCHY
ROOT Hips
{
 OFFSET 0.000000 0.000000 0.000000
 CHANNELS 6 Xposition Yposition Zposition Yrotation Xrotation Zrotation
 JOINT Chest
 {
  OFFSET 0.000000 10.354800 0.006500
  CHANNELS 3 Yrotation Xrotation Zrotation
  JOINT Chest2
  {
   OFFSET 0.000000 10.435800 -0.013200
   CHANNELS 3 Yrotation Xrotation Zrotation
   JOINT Chest3
   {
    OFFSET 0.000000 10.393700 0.000000
    CHANNELS 3 Yrotation Xrotation Zrotation
    JOINT Chest4
    {
     OFFSET 0.000000 10.383100 0.000000
     CHANNELS 3 Yrotation Xrotation Zrotation
     JOINT Neck
     {
      OFFSET 0.000000 15.694000 0.000000
      CHANNELS 3 Yrotation Xrotation Zrotation
      JOINT Head
      {
       OFFSET 0.000000 9.711000 -0.028000
       CHANNELS 3 Yrotation Xrotation Zrotation
       End Site
       {
        OFFSET 0.000000 18.578700 -0.014800
       }
      }
     }
     JOINT RightCollar
     {
      OFFSET -3.157200 10.367500 0.000000
      CHANNELS 3 Yrotation Xrotation Zrotation
      JOINT RightShoulder
      {
       OFFSET -14.482500 0.000000 0.000000
       CHANNELS 3 Yrotation Xrotation Zrotation
       JOINT RightElbow
       {
        OFFSET 0.000000 -31.707800 0.000000
        CHANNELS 3 Yrotation Xrotation Zrotation
        JOINT RightWrist
        {
         OFFSET 0.000000 -25.659300 0.000000
         CHANNELS 3 Yrotation Xrotation Zrotation
         End Site
         {
          OFFSET 0.000000 -18.994300 0.000000
         }
        }
       }
      }
     }
     JOINT LeftCollar
     {
      OFFSET 3.157200 10.367500 0.000000
      CHANNELS 3 Yrotation Xrotation Zrotation
      JOINT LeftShoulder
      {
       OFFSET 14.482500 0.000000 0.000000
       CHANNELS 3 Yrotation Xrotation Zrotation
       JOINT LeftElbow
       {
        OFFSET 0.000000 -31.707800 0.000000
        CHANNELS 3 Yrotation Xrotation Zrotation
        JOINT LeftWrist
        {
         OFFSET 0.000000 -25.659300 0.000000
         CHANNELS 3 Yrotation Xrotation Zrotation
         End Site
         {
          OFFSET 0.000000 -18.994300 0.000000
         }
        }
       }
      }
     }
    }
   }
  }
 }
 JOINT RightHip
 {
  OFFSET -8.365600 -0.032100 -0.003200
  CHANNELS 3 Yrotation Xrotation Zrotation
  JOINT RightKnee
  {
   OFFSET 0.000000 -43.980000 0.003100
   CHANNELS 3 Yrotation Xrotation Zrotation
   JOINT RightAnkle
   {
    OFFSET 0.000000 -42.882800 0.005200
    CHANNELS 3 Yrotation Xrotation Zrotation
    JOINT RightToe
    {
     OFFSET 0.000000 -4.915500 10.826300
     CHANNELS 3 Yrotation Xrotation Zrotation
     End Site
     {
      OFFSET 0.000000 -1.517500 6.175900
     }
    }
   }
  }
 }
 JOINT LeftHip
 {
  OFFSET 8.365600 -0.032100 -0.003200
  CHANNELS 3 Yrotation Xrotation Zrotation
  JOINT LeftKnee
  {
   OFFSET 0.000000 -43.980000 0.003100
   CHANNELS 3 Yrotation Xrotation Zrotation
   JOINT LeftAnkle
   {
    OFFSET 0.000000 -42.882800 0.005200
    CHANNELS 3 Yrotation Xrotation Zrotation
    JOINT LeftToe
    {
     OFFSET 0.000000 -4.915500 10.826300
     CHANNELS 3 Yrotation Xrotation Zrotation
     End Site
     {
      OFFSET 0.000000 -1.517500 6.175900
     }
    }
   }
  }
 }
}
MOTION
Frames: 15
Frame Time: 0.008333
0.000000 91.618600 0.000000 0.000000 -5.767877 0.000000 0.000000 11.653817 0.000000 0.000000 -5.885947 0.000000 0.000000 -0.000000 0.000000 0.000000 -0.000000 0.000000 0.000000 12.528835 0.000000 0.000000 0.711642 0.000000 0.000000 -0.000000 0.000000 0.000000 0.000000 -90.000000 0.000000 -2.309062 0.000000 0.000000 2.309062 0.000000 0.000000 -0.000000 0.000000 0.000000 -0.000000 90.000000 0.000000 -2.309062 0.000000 0.000000 2.309062 0.000000 0.000000 8.520406 0.000000 0.000000 1.905762 0.000000 -0.000000 -4.658285 0.000000 0.000000 -0.000000 0.000000 0.000000 8.520406 0.000000 0.000000 1.905762 0.000000 -0.000000 -4.658285 0.000000 0.000000 -0.000000 0.000000
89.977965 126.686361 120.549964 178.724234 -22.776794 -2.873728 -1.244354 12.206582 3.078395 -0.117587 0.933205 0.244241 -0.198166 1.591328 0.415354 -1.151161 11.102060 2.807231 -1.966744 21.316211 -3.352567 -1.344137 -2.972338 -3.157496 1.684408 5.123934 -4.556866 6.037526 -1.777996 -4.426469 -81.375449 -51.818093 119.111852 -24.204795 -15.639259 -33.792747 -0.443408 7.306134 0.001747 8.196021 4.839687 -1.488497 86.161093 -54.329539 -135.706317 25.689999 -2.260831 41.512822 8.085181 -59.182548 -0.359258 -112.899750 79.540329 -107.189326 3.808315 -14.925618 -15.256433 0.002274 0.002464 0.001033 -19.750625 -59.007963 12.187106 64.371526 80.325196 59.636230 -6.558087 -4.702203 -1.593148 -0.003194 -0.004208 -0.001450
89.979803 126.682418 120.545589 178.695505 -22.709159 -2.850727 -1.247991 12.201159 3.095914 -0.118360 0.931855 0.245298 -0.199457 1.589016 0.417122 -1.145497 11.068192 2.795118 -1.968701 21.327325 -3.334141 -1.338129 -2.981488 -3.159683 1.661577 5.162806 -4.530888 5.968106 -1.745030 -4.398969 -81.447326 -51.827142 119.163273 -24.215575 -15.679876 -33.842105 -0.436621 7.311325 0.006780 8.205308 4.912421 -1.486029 86.131049 -54.322443 -135.701535 25.691543 -2.261206 41.517769 8.110712 -59.256660 -0.369455 -112.824779 79.492858 -107.137076 3.823517 -14.961727 -15.258983 0.006465 -0.003965 0.002935 -19.749524 -59.070382 12.216988 64.435886 80.331060 59.701220 -6.571283 -4.724759 -1.595518 -0.002715 -0.000772 -0.001233
89.981552 126.677788 120.540238 178.669385 -22.629991 -2.825497 -1.253884 12.184902 3.110530 -0.119069 0.929816 0.246393 -0.187441 1.557308 0.401080 -1.171688 11.096234 2.840763 -1.964789 21.302850 -3.361749 -1.334111 -2.994018 -3.173844 1.655310 5.171363 -4.551832 5.895836 -1.711514 -4.369279 -81.510805 -51.840980 119.207402 -24.223564 -15.721936 -33.892960 -0.415268 7.284743 -0.031089 8.213145 4.978047 -1.489863 86.101584 -54.315968 -135.692858 25.689809 -2.259671 41.531648 8.103276 -59.352055 -0.374427 -112.758361 79.429040 -107.117383 3.888650 -14.954611 -15.251902 0.006194 -0.010699 0.002812 -19.751048 -59.144373 12.246742 64.458234 80.336600 59.722933 -6.562166 -4.739259 -1.597169 -0.000857 0.001288 -0.000389
89.984136 126.672992 120.533277 178.645701 -22.547002 -2.804135 -1.261264 12.164713 3.127201 -0.119663 0.927060 0.247638 -0.194640 1.566917 0.412517 -1.181981 11.074727 2.862318 -1.962848 21.283690 -3.391070 -1.330697 -3.003092 -3.189595 1.646895 5.187686 -4.578184 5.826150 -1.675949 -4.337986 -81.573298 -51.856408 119.244823 -24.226068 -15.770169 -33.943015 -0.405345 7.294366 -0.042800 8.221782 5.014072 -1.529192 86.076878 -54.310447 -135.684421 25.688617 -2.259096 41.553144 8.122946 -59.440401 -0.405230 -112.613323 79.349035 -107.004432 3.942598 -14.949729 -15.227499 0.001673 -0.010157 0.000759 -19.764554 -59.221882 12.286819 64.492270 80.345149 59.757381 -6.553850 -4.755150 -1.601824 0.000486 0.002381 0.000221
89.986198 126.668001 120.525074 178.629376 -22.461303 -2.781970 -1.274543 12.141409 3.141303 -0.120354 0.923870 0.248987 -0.202956 1.575866 0.423431 -1.172024 11.023536 2.844479 -1.963584 21.286941 -3.386540 -1.327956 -3.008087 -3.202180 1.619539 5.231875 -4.562322 5.763161 -1.638181 -4.308192 -81.638459 -51.868203 119.283079 -24.221396 -15.821375 -33.995142 -0.416703 7.335741 -0.006545 8.229752 5.046157 -1.575738 86.059888 -54.305979 -135.680690 25.686410 -2.262549 41.580577 8.142591 -59.531276 -0.442721 -112.454363 79.259367 -106.877573 3.942735 -14.913814 -15.179043 -0.007810 -0.003401 -0.003546 -19.780103 -59.305350 12.319547 64.532360 80.351760 59.800272 -6.553560 -4.767464 -1.606786 0.000139 0.001200 0.000063
89.988204 126.662646 120.516551 178.621070 -22.370849 -2.762481 -1.292198 12.113230 3.156690 -0.121300 0.920499 0.250286 -0.204509 1.570269 0.425623 -1.190457 11.009077 2.877888 -1.958763 21.253506 -3.455939 -1.326889 -3.009452 -3.206542 1.618056 5.241948 -4.606320 5.693866 -1.585963 -4.269433 -81.703925 -51.873127 119.324539 -24.211649 -15.870649 -34.049067 -0.422022 7.391995 0.025636 8.239596 5.042860 -1.674718 86.106253 -54.292896 -135.740698 25.699036 -2.244729 41.633880 8.162985 -59.625361 -0.486812 -112.316790 79.178358 -106.768389 3.956867 -14.872515 -15.140302 -0.012325 0.001939 -0.005596 -19.806857 -59.393547 12.355955 64.545223 80.356046 59.813204 -6.554712 -4.771972 -1.608786 -0.001768 -0.000836 -0.000803
89.991554 126.657183 120.507636 178.610763 -22.279402 -2.749791 -1.304174 12.083330 3.178808 -0.122217 0.916891 0.251441 -0.201299 1.551770 0.419182 -1.213024 11.006674 2.919058 -1.958000 21.243148 -3.482964 -1.322248 -3.015910 -3.224987 1.635612 5.224009 -4.670534 5.601193 -1.505314 -4.209040 -81.765203 -51.874343 119.367987 -24.203106 -15.920348 -34.104161 -0.419874 7.416534 0.028853 8.242588 5.058022 -1.740395 86.056089 -54.288694 -135.698044 25.681877 -2.255486 41.644607 8.183098 -59.718211 -0.522932 -112.205135 79.117159 -106.679272 3.996413 -14.849767 -15.118906 -0.012163 0.002091 -0.005523 -19.853121 -59.478019 12.417493 64.597250 80.358343 59.862750 -6.557443 -4.786049 -1.615215 0.000262 -0.001337 0.000119
89.994495 126.651607 120.498322 178.599765 -22.188221 -2.734688 -1.315040 12.052832 3.198068 -0.122935 0.912995 0.252429 -0.188646 1.507928 0.395368 -1.232953 11.019842 2.961998 -1.952012 21.259005 -3.459725 -1.314940 -3.039179 -3.273045 1.619026 5.258123 -4.680090 5.518783 -1.463720 -4.194680 -81.813529 -51.878535 119.411764 -24.198957 -15.974538 -34.160853 -0.417323 7.425534 0.018555 8.236186 5.084980 -1.774223 86.008999 -54.284282 -135.656375 25.669711 -2.265509 41.654860 8.217892 -59.809038 -0.567291 -112.162803 79.093330 -106.648936 3.991718 -14.829190 -15.102149 -0.010254 0.002795 -0.004656 -19.899140 -59.561479 12.475069 64.641266 80.361023 59.902096 -6.572509 -4.802945 -1.611143 -0.001603 -0.001213 -0.000728
89.998639 126.648543 120.482569 178.592409 -22.134736 -2.726885 -1.326114 12.059411 3.224018 -0.114799 0.881558 0.235955 -0.198931 1.529708 0.412755 -1.244150 10.994970 2.981344 -1.944577 21.261914 -3.461123 -1.295171 -3.026063 -3.269101 1.605089 5.291358 -4.693159 5.422556 -1.419207 -4.181493 -81.852254 -51.886181 119.458326 -24.199853 -16.029400 -34.217190 -0.417772 7.440589 0.019774 8.227933 5.101310 -1.826032 85.992424 -54.279898 -135.644060 25.670293 -2.267903 41.670136 8.244209 -59.864414 -0.593505 -112.135410 79.067543 -106.626727 3.981620 -14.786675 -15.080859 -0.009969 0.002719 -0.004527 -19.951292 -59.601639 12.530965 64.682753 80.364699 59.929303 -6.561660 -4.820368 -1.612396 -0.000912 -0.000926 -0.000414
90.000954 126.641552 120.476025 178.582474 -22.025777 -2.709411 -1.339131 12.009549 3.243762 -0.106296 0.850675 0.218460 -0.208426 1.551375 0.431256 -1.259293 10.969562 3.000841 -1.935105 21.258607 -3.474541 -1.281895 -3.029502 -3.285796 1.588893 5.316949 -4.703953 5.328600 -1.366591 -4.177420 -81.889409 -51.893954 119.505011 -24.206410 -16.079631 -34.270842 -0.420349 7.461436 0.032751 8.226322 5.100121 -1.897118 85.957184 -54.277529 -135.615387 25.669525 -2.268478 41.678351 8.305409 -59.976046 -0.655979 -112.106351 79.038055 -106.598850 3.979753 -14.746199 -15.063912 -0.010418 0.008376 -0.004731 -20.008710 -59.705207 12.595923 64.729177 80.368050 59.967954 -6.543694 -4.833227 -1.612930 -0.000343 0.000050 -0.000156
90.003299 126.634864 120.468756 178.579877 -21.921439 -2.695068 -1.358696 11.965439 3.263702 -0.121263 0.887677 0.246974 -0.197318 1.503446 0.406998 -1.273934 10.943862 3.017219 -1.924093 21.255552 -3.487204 -1.271936 -3.037735 -3.311213 1.573045 5.342513 -4.717683 5.240641 -1.315029 -4.175348 -81.929086 -51.900632 119.545508 -24.215587 -16.124509 -34.319228 -0.413260 7.461834 0.016505 8.229445 5.093999 -1.942425 85.885229 -54.278474 -135.555390 25.667297 -2.269061 41.682152 8.354943 -60.080706 -0.715864 -112.280976 79.085932 -106.764691 3.929361 -14.726855 -15.064904 -0.007513 0.014774 -0.003412 -20.071220 -59.806882 12.659671 64.793603 80.372189 60.025986 -6.536721 -4.844002 -1.615371 -0.000720 -0.000081 -0.000327
90.005620 126.629243 120.459032 178.579025 -21.832931 -2.681446 -1.378877 11.937514 3.283297 -0.126984 0.897539 0.256696 -0.209323 1.519170 0.427556 -1.279547 10.881538 3.007901 -1.911126 21.252435 -3.498099 -1.272464 -3.055898 -3.353512 1.528015 5.399766 -4.704777 5.186925 -1.298823 -4.208545 -81.972487 -51.903841 119.580611 -24.221760 -16.163357 -34.362766 -0.396653 7.445346 -0.029366 8.209279 5.121477 -1.944210 85.888123 -54.265910 -135.559391 25.657680 -2.278017 41.679740 8.421812 -60.172264 -0.779885 -112.461218 79.113426 -106.926670 3.884122 -14.725585 -15.065854 -0.004762 0.016302 -0.002162 -20.125948 -59.894449 12.715468 64.843817 80.382541 60.066721 -6.534664 -4.852565 -1.613844 -0.003315 -0.002359 -0.001505
90.008548 126.623334 120.450519 178.574104 -21.739487 -2.670660 -1.387240 11.873918 3.292101 -0.135445 0.922042 0.275325 -0.216335 1.525665 0.438855 -1.293020 10.843057 3.016988 -1.895115 21.250368 -3.507303 -1.262076 -3.058181 -3.368390 1.508179 5.432893 -4.711953 5.111817 -1.263694 -4.220322 -82.008241 -51.902433 119.607042 -24.223373 -16.195589 -34.402678 -0.392275 7.456451 -0.028830 8.196371 5.123428 -2.000135 85.926993 -54.253004 -135.589127 25.666714 -2.271394 41.684675 8.520409 -60.273417 -0.850923 -112.582181 79.105332 -107.019047 3.892981 -14.755442 -15.087106 0.004435 0.005803 0.002014 -20.188526 -59.982467 12.786361 64.870543 80.395367 60.082919 -6.529650 -4.868509 -1.607240 -0.004169 -0.003361 -0.001893
90.011233 126.618074 120.440867 178.568997 -21.655393 -2.659451 -1.401931 11.859570 3.325242 -0.132546 0.903670 0.267886 -0.215420 1.509300 0.431868 -1.299677 10.818606 3.016598 -1.878084 21.258370 -3.481362 -1.209982 -3.038600 -3.341538 1.479831 5.462868 -4.697646 5.036242 -1.220364 -4.224105 -82.035003 -51.897461 119.624059 -24.224803 -16.224610 -34.439229 -0.399650 7.477871 -0.002452 8.165744 5.130782 -2.042632 85.941895 -54.229635 -135.592920 25.667700 -2.263748 41.678979 8.577444 -60.360267 -0.894858 -112.685432 79.108556 -107.110139 3.892709 -14.796448 -15.106093 0.006966 -0.001065 0.003163 -20.246421 -60.059138 12.853402 64.975602 80.403584 60.181464 -6.545060 -4.896448 -1.609636 -0.001839 -0.000662 -0.000835
